<?xml version="1.0" standalone="no"?>
<!DOCTYPE svg PUBLIC "-//W3C//DTD SVG 20010904//EN"
 "http://www.w3.org/TR/2001/REC-SVG-20010904/DTD/svg10.dtd">
<svg version="1.0" xmlns="http://www.w3.org/2000/svg"
 width="500.000000pt" height="500.000000pt" viewBox="0 0 500.000000 500.000000"
 preserveAspectRatio="xMidYMid meet">
<metadata>
Created by potrace 1.11, written by Peter Selinger 2001-2013
</metadata>
<g transform="translate(0.000000,500.000000) scale(0.100000,-0.100000)"
fill="#000000" stroke="none">
<path d="M2329 4966 c-2 -2 -40 -7 -84 -10 -44 -4 -147 -21 -230 -37 -744
-148 -1394 -647 -1724 -1324 -38 -77 -75 -156 -84 -175 -36 -84 -117 -359
-132 -450 -3 -19 -10 -60 -15 -90 -18 -99 -25 -212 -25 -400 1 -162 4 -219 19
-330 63 -462 278 -933 586 -1284 70 -80 222 -224 313 -297 343 -277 721 -444
1177 -520 185 -31 572 -33 740 -3 14 3 40 7 58 9 77 11 286 66 397 105 135 47
326 135 429 198 37 23 70 42 72 42 4 0 177 121 184 129 3 4 37 31 75 62 277
222 549 585 696 929 60 141 142 406 154 500 3 22 11 68 21 125 13 64 19 205
18 390 -2 219 -19 366 -65 550 -206 823 -809 1481 -1605 1751 -73 25 -141 47
-151 49 -10 2 -56 12 -103 23 -84 20 -127 28 -205 38 -22 3 -51 8 -65 11 -29
6 -445 14 -451 9z m456 -311 c330 -53 570 -135 815 -279 332 -194 602 -467
795 -801 429 -744 371 -1696 -145 -2380 -72 -95 -84 -109 -165 -196 -205 -219
-477 -406 -760 -522 -51 -21 -159 -59 -175 -62 -3 -1 -30 -8 -60 -17 -80 -24
-227 -53 -315 -63 -438 -49 -849 20 -1230 207 -114 56 -109 53 -230 132 -466
305 -794 767 -924 1301 -10 44 -22 98 -26 120 -4 22 -9 50 -11 62 -3 13 -7 38
-10 55 -13 75 -12 465 2 564 26 198 80 393 157 574 40 93 56 125 112 225 181
322 483 625 803 807 157 89 401 191 508 212 10 2 48 12 84 21 160 40 288 52
515 50 121 -2 238 -6 260 -10z"/>
<path d="M1528 3993 c-2 -4 -4 -699 -4 -1543 l1 -1535 210 0 210 0 3 648 2
647 113 0 c263 0 994 9 1012 13 183 37 251 63 370 142 193 127 315 321 359
570 13 79 14 307 1 370 -57 274 -194 464 -427 589 -59 32 -190 76 -273 93 -46
9 -1573 15 -1577 6z m1427 -378 c120 -20 217 -61 284 -121 102 -92 141 -197
142 -374 0 -297 -140 -470 -426 -525 -52 -10 -191 -14 -537 -15 l-468 -1 0
525 0 525 463 -1 c326 0 486 -4 542 -13z"/>
</g>
</svg>
