<?xml version="1.0" standalone="no"?>
<!DOCTYPE svg PUBLIC "-//W3C//DTD SVG 20010904//EN"
 "http://www.w3.org/TR/2001/REC-SVG-20010904/DTD/svg10.dtd">
<svg version="1.0" xmlns="http://www.w3.org/2000/svg"
 width="1024.000000pt" height="1024.000000pt" viewBox="0 0 1024.000000 1024.000000"
 preserveAspectRatio="xMidYMid meet">
<metadata>
Created by potrace 1.11, written by Peter Selinger 2001-2013
</metadata>
<g transform="translate(0.000000,1024.000000) scale(0.100000,-0.100000)"
fill="#000000" stroke="none">
<path d="M4090 9221 c0 -806 -3 -1020 -12 -1023 -7 -2 -469 -4 -1025 -3
l-1013 0 0 -4097 0 -4097 1029 0 1029 -1 0 2023 c1 1112 1 2032 2 2045 l0 22
2045 0 2045 0 0 3075 0 3074 -2050 0 -2050 0 0 -1018z m2040 -1066 c1 -42 1
-1911 1 -1962 l-1 -43 -1015 0 -1015 0 -1 43 c0 52 0 1921 1 1962 l0 31 1015
0 1015 0 0 -31z"/>
</g>
</svg>
